<?xml version="1.0" encoding="UTF-8" standalone="no"?>
<!-- Created with Inkscape (http://www.inkscape.org/) -->

<svg
   xmlns:dc="http://purl.org/dc/elements/1.1/"
   xmlns:cc="http://creativecommons.org/ns#"
   xmlns:rdf="http://www.w3.org/1999/02/22-rdf-syntax-ns#"
   xmlns:svg="http://www.w3.org/2000/svg"
   xmlns="http://www.w3.org/2000/svg"
   xmlns:sodipodi="http://sodipodi.sourceforge.net/DTD/sodipodi-0.dtd"
   xmlns:inkscape="http://www.inkscape.org/namespaces/inkscape"
   width="50mm"
   height="50mm"
   viewBox="0 0 177.16535 177.16535"
   id="svg2"
   version="1.1"
   inkscape:version="0.91 r13725"
   sodipodi:docname="logout-topbar.svg">
  <defs
     id="defs4" />
  <sodipodi:namedview
     id="base"
     pagecolor="#ffffff"
     bordercolor="#666666"
     borderopacity="1.0"
     inkscape:pageopacity="0.0"
     inkscape:pageshadow="2"
     inkscape:zoom="1.979899"
     inkscape:cx="135.40508"
     inkscape:cy="-3.1589854"
     inkscape:document-units="px"
     inkscape:current-layer="layer1"
     showgrid="false"
     inkscape:window-width="1920"
     inkscape:window-height="1016"
     inkscape:window-x="0"
     inkscape:window-y="27"
     inkscape:window-maximized="1" />
  <metadata
     id="metadata7">
    <rdf:RDF>
      <cc:Work
         rdf:about="">
        <dc:format>image/svg+xml</dc:format>
        <dc:type
           rdf:resource="http://purl.org/dc/dcmitype/StillImage" />
        <dc:title></dc:title>
      </cc:Work>
    </rdf:RDF>
  </metadata>
  <g
     inkscape:label="Layer 1"
     inkscape:groupmode="layer"
     id="layer1"
     transform="translate(0,-875.19685)">
    <path
       style="opacity:1;fill:#ffffff;fill-opacity:0.42307693;fill-rule:nonzero;stroke:none;stroke-width:10;stroke-linecap:round;stroke-linejoin:round;stroke-miterlimit:4;stroke-dasharray:none;stroke-dashoffset:0;stroke-opacity:1"
       d="M 47.335983,911.36751 A 44.478311,49.767627 0 0 0 2.8571143,961.13588 44.478311,49.767627 0 0 0 47.335983,1010.9029 44.478311,49.767627 0 0 0 88.872294,978.7715 l 5.346033,0.39575 1.923573,8.65539 7.21307,-12.02132 1.44235,20.19554 8.17421,0.48127 8.65542,-23.0816 4.32706,0.48122 11.54013,16.82962 8.17552,-15.38726 5.28818,7.21306 6.25194,-9.13664 9.13534,0.48122 8.65542,-15.38727 -14.42483,-17.31087 -72.552787,0 a 44.478311,49.767627 0 0 0 -40.68694,-29.8121 z m -12.743186,35.34222 a 14.425396,14.425397 0 0 1 14.426148,14.42484 14.425396,14.425397 0 0 1 -14.426148,14.42614 14.425396,14.425397 0 0 1 -14.424835,-14.42614 14.425396,14.425397 0 0 1 14.424835,-14.42484 z"
       id="path4143"
       inkscape:connector-curvature="0" />
    <path
       style="color:#000000;font-style:normal;font-variant:normal;font-weight:normal;font-stretch:normal;font-size:medium;line-height:normal;font-family:sans-serif;text-indent:0;text-align:start;text-decoration:none;text-decoration-line:none;text-decoration-style:solid;text-decoration-color:#000000;letter-spacing:normal;word-spacing:normal;text-transform:none;direction:ltr;block-progression:tb;writing-mode:lr-tb;baseline-shift:baseline;text-anchor:start;white-space:normal;clip-rule:nonzero;display:inline;overflow:visible;visibility:visible;opacity:1;isolation:auto;mix-blend-mode:normal;color-interpolation:sRGB;color-interpolation-filters:linearRGB;solid-color:#000000;solid-opacity:1;fill:#ffffff;fill-opacity:1;fill-rule:evenodd;stroke:none;stroke-width:29.86896324;stroke-linecap:butt;stroke-linejoin:miter;stroke-miterlimit:4;stroke-dasharray:none;stroke-dashoffset:0;stroke-opacity:1;color-rendering:auto;image-rendering:auto;shape-rendering:auto;text-rendering:auto;enable-background:accumulate"
       d="m 33.272122,887.34787 -21.121094,21.1211 55.3125,55.31054 -55.3125,55.31249 21.121094,21.1192 55.310547,-55.31059 55.312501,55.31059 21.11914,-21.1192 -55.31054,-55.31249 55.31054,-55.31054 -21.11914,-21.1211 -55.312501,55.3125 -55.310547,-55.3125 z"
       id="path4134"
       inkscape:connector-curvature="0" />
  </g>
</svg>
