<?xml version="1.0" encoding="UTF-8" standalone="no"?>
<!-- Created with Inkscape (http://www.inkscape.org/) -->

<svg
   xmlns:dc="http://purl.org/dc/elements/1.1/"
   xmlns:cc="http://creativecommons.org/ns#"
   xmlns:rdf="http://www.w3.org/1999/02/22-rdf-syntax-ns#"
   xmlns:svg="http://www.w3.org/2000/svg"
   xmlns="http://www.w3.org/2000/svg"
   xmlns:sodipodi="http://sodipodi.sourceforge.net/DTD/sodipodi-0.dtd"
   xmlns:inkscape="http://www.inkscape.org/namespaces/inkscape"
   width="300"
   height="100"
   viewBox="0 0 300.00001 99.999997"
   id="svg5840"
   version="1.1"
   inkscape:version="0.91 r13725"
   sodipodi:docname="logo_uibk.svg">
  <defs
     id="defs5842" />
  <sodipodi:namedview
     id="base"
     pagecolor="#ffffff"
     bordercolor="#666666"
     borderopacity="1.0"
     inkscape:pageopacity="0.0"
     inkscape:pageshadow="2"
     inkscape:zoom="2.8"
     inkscape:cx="87.057228"
     inkscape:cy="63.324302"
     inkscape:document-units="px"
     inkscape:current-layer="g5801"
     showgrid="false"
     units="px"
     inkscape:window-width="1920"
     inkscape:window-height="1016"
     inkscape:window-x="0"
     inkscape:window-y="27"
     inkscape:window-maximized="1" />
  <metadata
     id="metadata5845">
    <rdf:RDF>
      <cc:Work
         rdf:about="">
        <dc:format>image/svg+xml</dc:format>
        <dc:type
           rdf:resource="http://purl.org/dc/dcmitype/StillImage" />
        <dc:title></dc:title>
      </cc:Work>
    </rdf:RDF>
  </metadata>
  <g
     inkscape:label="Layer 1"
     inkscape:groupmode="layer"
     id="layer1"
     transform="translate(0,-952.36223)">
    <g
       transform="matrix(2.5592672,0,0,-2.5592672,1350.4049,1610.1951)"
       id="g5801">
      <path
         d="m -428.94087,222.54751 1.791,0 0,5.002 4.345,-5.002 2.572,0 -5.087,5.422 4.515,4.314 -2.439,0 -3.906,-3.952 0,8.156 -1.791,0 0,-13.94 z"
         style="fill:#1d1d1b;fill-opacity:1;fill-rule:nonzero;stroke:none"
         id="path4442"
         inkscape:connector-curvature="0" />
      <path
         d="m -468.10187,222.54751 1.715,0 0,1.373 0.038,0 c 0.476,-0.725 1.582,-1.601 3.316,-1.601 2.934,0 4.173,2.591 4.173,5.26 0,2.611 -1.372,4.917 -4.192,4.917 -1.696,0 -2.668,-0.667 -3.221,-1.563 l -0.038,0 0,5.532 -1.791,0 0,-13.918 z m 7.337,4.898 c 0.038,-1.524 -0.763,-3.678 -2.688,-3.678 -2.02,0 -2.858,2.001 -2.858,3.621 0,1.811 0.934,3.659 2.878,3.659 1.943,0 2.706,-1.848 2.668,-3.602"
         style="fill:#1d1d1b;fill-opacity:1;fill-rule:nonzero;stroke:none"
         id="path4454"
         inkscape:connector-curvature="0" />
      <path
         inkscape:connector-curvature="0"
         id="path4456"
         style="fill:#1d1d1b;fill-opacity:1;fill-rule:nonzero;stroke:none"
         d="m -503.86407,222.55871 1.791,0 0,9.72 -1.791,0 0,-9.72 z" />
      <path
         inkscape:connector-curvature="0"
         id="path4458"
         style="fill:#1d1d1b;fill-opacity:1;fill-rule:nonzero;stroke:none"
         d="m -503.86407,234.73671 1.791,0 0,1.791 -1.791,0 0,-1.791 z" />
      <path
         d="m -430.07047,247.69101 -2.573,0 0,3.324 -1.791,-0.572 0,-2.752 -2.191,0 0,-1.448 2.191,0 0,-5.68 c 0,-1.944 1.143,-2.821 2.992,-2.821 0.572,0 1.124,0.153 1.524,0.267 l 0,1.525 c -0.267,-0.172 -0.667,-0.343 -1.219,-0.343 -0.819,0 -1.506,0.609 -1.506,1.734 l 0,5.318 2.573,0 0,1.448 z"
         style="fill:#1d1d1b;fill-opacity:1;fill-rule:nonzero;stroke:none"
         id="path4470"
         inkscape:connector-curvature="0" />
      <path
         d="m -412.07047,247.69101 -2.573,0 0,3.324 -1.791,-0.572 0,-2.752 -2.191,0 0,-1.448 2.191,0 0,-5.68 c 0,-1.944 1.143,-2.821 2.992,-2.821 0.572,0 1.124,0.153 1.524,0.267 l 0,1.525 c -0.267,-0.172 -0.667,-0.343 -1.219,-0.343 -0.819,0 -1.506,0.609 -1.506,1.734 l 0,5.318 2.573,0 0,1.448 z"
         style="fill:#1d1d1b;fill-opacity:1;fill-rule:nonzero;stroke:none"
         id="path4474"
         inkscape:connector-curvature="0" />
      <path
         d="m -498.79717,222.54751 1.791,0 0,4.498 c 0,2.363 0.915,4.002 2.954,4.002 1.562,-0.095 2.058,-1.2 2.058,-3.468 l 0,-5.032 1.791,0 0,5.775 c 0,2.611 -1.124,4.174 -3.64,4.174 -1.352,0 -2.648,-0.667 -3.182,-1.772 l -0.038,0 0,1.543 -1.734,0 0,-9.72 z m 11.643,0 1.791,0 0,4.498 c 0,2.363 0.914,4.002 2.954,4.002 1.562,-0.095 2.057,-1.2 2.057,-3.468 l 0,-5.032 1.792,0 0,5.775 c 0,2.611 -1.124,4.174 -3.64,4.174 -1.353,0 -2.649,-0.667 -3.182,-1.772 l -0.038,0 0,1.543 -1.734,0 0,-9.72 z m 10.823,0.305 c 0.82,-0.438 1.753,-0.533 2.668,-0.533 1.734,0 3.392,0.953 3.392,3.03 0,3.106 -4.211,2.534 -4.211,4.517 0,0.8 0.8,1.181 1.715,1.181 0.419,0 1.486,-0.247 1.886,-0.495 l 0.152,1.563 c -0.705,0.21 -1.39,0.381 -2.229,0.381 -1.925,0 -3.43,-0.972 -3.43,-2.992 0,-2.725 4.211,-2.573 4.211,-4.346 0,-1.048 -1.01,-1.391 -1.829,-1.391 -0.514,0 -1.525,0.229 -2.23,0.686 l -0.095,-1.601 z m 19.875,-0.305 1.791,0 0,4.422 c 0,2.439 1.048,3.964 2.649,3.964 0.305,0 0.667,-0.038 0.99,-0.171 l 0,1.601 c -0.38,0.076 -0.647,0.133 -1.181,0.133 -1.029,0 -2.058,-0.724 -2.534,-1.734 l -0.038,0 0,1.505 -1.677,0 0,-9.72 z m 16.006,9.72 -1.791,0 0,-4.497 c 0,-2.364 -0.915,-4.003 -2.954,-4.003 -1.562,0.095 -2.057,1.201 -2.057,3.468 l 0,5.032 -1.792,0 0,-5.775 c 0,-2.611 1.125,-4.173 3.64,-4.173 1.353,0 2.649,0.666 3.182,1.772 l 0.038,0 0,-1.544 1.734,0 0,9.72 z m 9.375,-0.152 c -0.514,0.21 -1.448,0.381 -2.172,0.381 -2.973,0 -4.954,-2.135 -4.954,-5.089 0,-2.782 2.019,-5.088 4.954,-5.088 0.648,0 1.506,0.056 2.249,0.4 l -0.134,1.601 c -0.553,-0.362 -1.314,-0.553 -1.924,-0.553 -2.306,0 -3.24,1.906 -3.24,3.64 0,1.849 1.124,3.64 3.125,3.64 0.572,0 1.258,-0.133 1.944,-0.419 l 0.152,1.487 z"
         style="fill:#1d1d1b;fill-opacity:1;fill-rule:nonzero;stroke:none"
         id="path4478"
         inkscape:connector-curvature="0" />
      <path
         inkscape:connector-curvature="0"
         id="path4480"
         style="fill:#1d1d1b;fill-opacity:1;fill-rule:nonzero;stroke:none"
         d="m -526.17607,237.92871 13.974,0 0,13.977 -13.974,0 0,-13.977 z" />
      <path
         d="m -525.85403,222.8617 13.32687,0 0,13.32892 -13.32687,0 0,-13.32892 z"
         style="fill:none;stroke:#1d1d1b;stroke-width:0.64340889;stroke-linecap:butt;stroke-linejoin:miter;stroke-miterlimit:4;stroke-dasharray:none;stroke-opacity:1"
         id="path4492"
         inkscape:connector-curvature="0" />
      <path
         inkscape:connector-curvature="0"
         id="path4494"
         style="fill:#1d1d1b;fill-opacity:1;fill-rule:nonzero;stroke:none"
         d="m -440.31407,250.11371 1.791,0 0,1.791 -1.791,0 0,-1.791 z" />
      <path
         inkscape:connector-curvature="0"
         id="path4496"
         style="fill:#1d1d1b;fill-opacity:1;fill-rule:nonzero;stroke:none"
         d="m -480.55407,250.11371 1.791,0 0,1.791 -1.791,0 0,-1.791 z" />
      <path
         inkscape:connector-curvature="0"
         id="path4498"
         style="fill:#1d1d1b;fill-opacity:1;fill-rule:nonzero;stroke:none"
         d="m -426.51307,249.21871 1.791,0 0,1.791 -1.791,0 0,-1.791 z" />
      <path
         inkscape:connector-curvature="0"
         id="path4500"
         style="fill:#1d1d1b;fill-opacity:1;fill-rule:nonzero;stroke:none"
         d="m -423.40507,249.21871 1.791,0 0,1.791 -1.791,0 0,-1.791 z" />
      <path
         d="m -495.47567,247.65411 -1.791,0 0,-4.498 c 0,-2.363 -0.915,-4.002 -2.954,-4.002 -1.562,0.095 -2.058,1.2 -2.058,3.468 l 0,5.032 -1.791,0 0,-5.775 c 0,-2.611 1.124,-4.174 3.64,-4.174 1.352,0 2.648,0.667 3.182,1.772 l 0.038,0 0,-1.543 1.734,0 0,9.72 z m 3.049,-9.72 1.791,0 0,4.498 c 0,2.363 0.915,4.002 2.953,4.002 1.563,-0.095 2.059,-1.201 2.059,-3.468 l 0,-5.032 1.791,0 0,5.775 c 0,2.611 -1.124,4.173 -3.64,4.173 -1.353,0 -2.649,-0.666 -3.183,-1.772 l -0.037,0 0,1.544 -1.734,0 0,-9.72 z m 11.871,0 1.791,0 0,9.72 -1.791,0 0,-9.72 z m 12.863,9.72 -1.791,0 -2.688,-7.929 -0.038,0 -2.63,7.929 -1.962,0 3.487,-9.72 2.134,0 3.488,9.72 z m 9.184,-7.529 c -0.438,-0.362 -1.81,-0.971 -2.991,-0.971 -1.696,0 -3.202,1.314 -3.202,3.24 l 6.936,0 c 0,3.126 -1.048,5.488 -4.287,5.488 -2.744,0 -4.554,-2.039 -4.554,-4.916 0,-3.164 1.581,-5.261 5.031,-5.261 1.6,0 2.381,0.381 3.067,0.629 l 0,1.791 z m -6.193,3.603 c 0.134,1.257 0.858,2.706 2.611,2.706 1.543,0 2.42,-1.219 2.42,-2.706 l -5.031,0 z m 9.338,-5.794 1.791,0 0,4.422 c 0,2.439 1.048,3.964 2.648,3.964 0.305,0 0.668,-0.038 0.991,-0.172 l 0,1.601 c -0.381,0.077 -0.648,0.133 -1.181,0.133 -1.029,0 -2.058,-0.723 -2.535,-1.734 l -0.038,0 0,1.506 -1.676,0 0,-9.72 z m 6.593,0.305 c 0.819,-0.439 1.753,-0.534 2.667,-0.534 1.735,0 3.392,0.953 3.392,3.03 0,3.107 -4.211,2.535 -4.211,4.517 0,0.801 0.8,1.182 1.715,1.182 0.419,0 1.486,-0.248 1.887,-0.495 l 0.152,1.563 c -0.705,0.209 -1.391,0.38 -2.23,0.38 -1.924,0 -3.43,-0.971 -3.43,-2.992 0,-2.725 4.212,-2.573 4.212,-4.345 0,-1.048 -1.01,-1.391 -1.83,-1.391 -0.515,0 -1.524,0.228 -2.229,0.686 l -0.095,-1.601 z m 8.46,-0.305 1.791,0 0,9.72 -1.791,0 0,-9.72 z m 13.034,7.509 c 0.724,0.61 1.81,0.991 2.82,0.991 1.791,0 2.401,-0.858 2.401,-2.535 -0.705,0.038 -1.2,0.038 -1.905,0.038 -1.849,0 -4.517,-0.762 -4.517,-3.202 0,-2.115 1.468,-3.03 3.564,-3.03 1.638,0 2.591,0.896 3.011,1.487 l 0.038,0 0,-1.258 1.676,0 c -0.038,0.285 -0.076,0.8 -0.076,1.906 l 0,4.021 c 0,2.65 -1.124,4.021 -3.906,4.021 -1.239,0 -2.306,-0.38 -3.201,-0.914 l 0.095,-1.525 z m 5.221,-3.735 c 0,-1.449 -0.934,-2.554 -2.706,-2.554 -0.819,0 -1.81,0.552 -1.81,1.581 0,1.716 2.401,1.868 3.373,1.868 0.381,0 0.762,-0.038 1.143,-0.038 l 0,-0.857 z"
         style="fill:#1d1d1b;fill-opacity:1;fill-rule:nonzero;stroke:none"
         id="path4512"
         inkscape:connector-curvature="0" />
    </g>
  </g>
</svg>
